<?xml version="1.0" encoding="UTF-8" standalone="no"?>
<svg
   xmlns:dc="http://purl.org/dc/elements/1.1/"
   xmlns:cc="http://creativecommons.org/ns#"
   xmlns:rdf="http://www.w3.org/1999/02/22-rdf-syntax-ns#"
   xmlns:svg="http://www.w3.org/2000/svg"
   xmlns="http://www.w3.org/2000/svg"
   xmlns:sodipodi="http://sodipodi.sourceforge.net/DTD/sodipodi-0.dtd"
   xmlns:inkscape="http://www.inkscape.org/namespaces/inkscape"
   width="102mm"
   height="102mm"
   viewBox="0 0 102 102"
   version="1.1"
   id="svg957"
   inkscape:version="1.0.2 (e86c870879, 2021-01-15, custom)"
   sodipodi:docname="front.svg">
  <defs
     id="defs951" />
  <sodipodi:namedview
     id="base"
     pagecolor="#ffffff"
     bordercolor="#666666"
     borderopacity="1.0"
     inkscape:pageopacity="0.0"
     inkscape:pageshadow="2"
     inkscape:zoom="256"
     inkscape:cx="4.254466"
     inkscape:cy="3.2559524"
     inkscape:document-units="mm"
     inkscape:current-layer="layer1"
     inkscape:document-rotation="0"
     showgrid="true"
     inkscape:window-width="2560"
     inkscape:window-height="1369"
     inkscape:window-x="-8"
     inkscape:window-y="-8"
     inkscape:window-maximized="1">
    <inkscape:grid
       type="xygrid"
       id="grid1652" />
  </sodipodi:namedview>
  <metadata
     id="metadata954">
    <rdf:RDF>
      <cc:Work
         rdf:about="">
        <dc:format>image/svg+xml</dc:format>
        <dc:type
           rdf:resource="http://purl.org/dc/dcmitype/StillImage" />
        <dc:title></dc:title>
      </cc:Work>
    </rdf:RDF>
  </metadata>
  <g
     inkscape:label="Layer 1"
     inkscape:groupmode="layer"
     id="layer1">
    <rect
       style="fill:none;fill-opacity:0.497992;fill-rule:evenodd;stroke:#ff0000;stroke-width:0.00399988;stroke-miterlimit:4;stroke-dasharray:none;stroke-opacity:1"
       id="rect1404"
       width="100.4"
       height="100.4"
       x="0.80000001"
       y="0.80000001" />
    <rect
       style="fill:none;fill-opacity:0.497992;fill-rule:evenodd;stroke:#ff0000;stroke-width:0.003;stroke-miterlimit:4;stroke-dasharray:none;stroke-opacity:1"
       id="rect1426"
       width="4"
       height="1.9999924"
       x="18.999899"
       y="79.999893" />
    <rect
       style="fill:none;fill-opacity:0.497992;fill-rule:evenodd;stroke:#ff0000;stroke-width:0.003;stroke-miterlimit:4;stroke-dasharray:none;stroke-opacity:1"
       id="rect1426-1"
       width="4"
       height="1.9999924"
       x="38.999901"
       y="71.999908" />
    <rect
       style="fill:none;fill-opacity:0.497992;fill-rule:evenodd;stroke:#ff0000;stroke-width:0.003;stroke-miterlimit:4;stroke-dasharray:none;stroke-opacity:1"
       id="rect1426-4"
       width="4"
       height="1.9999924"
       x="58.999901"
       y="63.999908" />
    <rect
       style="fill:none;fill-opacity:0.497992;fill-rule:evenodd;stroke:#ff0000;stroke-width:0.003;stroke-miterlimit:4;stroke-dasharray:none;stroke-opacity:1"
       id="rect1426-5"
       width="4"
       height="1.9999924"
       x="78.999908"
       y="55.999908" />
    <rect
       style="fill:none;fill-opacity:0.497992;fill-rule:evenodd;stroke:#ff0000;stroke-width:0.003;stroke-miterlimit:4;stroke-dasharray:none;stroke-opacity:1"
       id="rect1426-43"
       width="4"
       height="1.9999924"
       x="58.999901"
       y="47.999908" />
    <rect
       style="fill:none;fill-opacity:0.497992;fill-rule:evenodd;stroke:#ff0000;stroke-width:0.003;stroke-miterlimit:4;stroke-dasharray:none;stroke-opacity:1"
       id="rect1426-2"
       width="4"
       height="1.9999924"
       x="38.999901"
       y="39.999908" />
    <rect
       style="fill:none;fill-opacity:0.497992;fill-rule:evenodd;stroke:#ff0000;stroke-width:0.003;stroke-miterlimit:4;stroke-dasharray:none;stroke-opacity:1"
       id="rect1426-7"
       width="4"
       height="1.9999924"
       x="58.999901"
       y="31.999908" />
    <rect
       style="fill:none;fill-opacity:0.497992;fill-rule:evenodd;stroke:#ff0000;stroke-width:0.003;stroke-miterlimit:4;stroke-dasharray:none;stroke-opacity:1"
       id="rect1426-76"
       width="4"
       height="1.9999924"
       x="48.999901"
       y="19.999907" />
    <path
       sodipodi:type="star"
       style="fill:#000000;fill-opacity:1;fill-rule:evenodd;stroke:none;stroke-width:0.1;stroke-miterlimit:4;stroke-dasharray:none;stroke-opacity:1"
       id="path1540"
       sodipodi:sides="5"
       sodipodi:cx="50.999901"
       sodipodi:cy="10.999899"
       sodipodi:r1="7.5"
       sodipodi:r2="3.75"
       sodipodi:arg1="-1.5707963"
       sodipodi:arg2="-0.9424778"
       inkscape:flatsided="false"
       inkscape:rounded="0"
       inkscape:randomized="0"
       inkscape:transform-center-y="-0.71618645"
       d="m 50.999901,3.4998989 2.204195,4.4661863 4.928729,0.7161864 -3.566462,3.4764414 0.841927,4.908813 -4.408389,-2.317627 -4.40839,2.317627 0.841928,-4.908813 -3.566462,-3.4764417 4.928729,-0.7161861 z" />
    <path
       style="fill:none;stroke:#000000;stroke-width:0.1;stroke-linecap:butt;stroke-linejoin:miter;stroke-miterlimit:4;stroke-dasharray:none;stroke-opacity:1"
       d="m 50.999901,21.999899 c 0,0 1.50106,3.503769 4.00445,6.000378 2.5034,2.496609 5.99555,3.999621 5.99555,3.999621"
       id="path1544"
       inkscape:transform-center-x="-0.35435268"
       inkscape:transform-center-y="-0.35435268"
       sodipodi:nodetypes="csc" />
    <path
       style="fill:none;stroke:#000000;stroke-width:0.1;stroke-linecap:butt;stroke-linejoin:miter;stroke-miterlimit:4;stroke-dasharray:none;stroke-opacity:1"
       d="m 42.999901,40.999899 c 0,0 5.5,-1 9.5,-2.50249 3.56471,-1.338983 8.5,-4.49751 8.5,-4.49751"
       id="path1546"
       sodipodi:nodetypes="csc" />
    <path
       style="fill:none;stroke:#000000;stroke-width:0.1;stroke-linecap:butt;stroke-linejoin:miter;stroke-miterlimit:4;stroke-dasharray:none;stroke-opacity:1"
       d="m 62.999901,64.999895 c 0,0 5.5,-0.999996 9.5,-2.502486 3.56471,-1.338983 8.5,-4.49751 8.5,-4.49751"
       id="path1546-7"
       sodipodi:nodetypes="csc" />
    <path
       style="fill:none;stroke:#000000;stroke-width:0.1;stroke-linecap:butt;stroke-linejoin:miter;stroke-miterlimit:4;stroke-dasharray:none;stroke-opacity:1"
       d="m 42.999901,72.999895 c 0,0 5.5,-1 9.5,-2.50249 3.56471,-1.33898 8.5,-4.49751 8.5,-4.49751"
       id="path1546-4"
       sodipodi:nodetypes="csc" />
    <path
       style="fill:none;stroke:#000000;stroke-width:0.1;stroke-linecap:butt;stroke-linejoin:miter;stroke-miterlimit:4;stroke-dasharray:none;stroke-opacity:1"
       d="m 22.999903,80.999895 c 0,0 5.5,-1 9.5,-2.50249 3.564705,-1.33898 8.499999,-4.49751 8.499999,-4.49751"
       id="path1546-73"
       sodipodi:nodetypes="csc" />
    <path
       style="fill:none;stroke:#000000;stroke-width:0.1;stroke-linecap:butt;stroke-linejoin:miter;stroke-miterlimit:4;stroke-dasharray:none;stroke-opacity:1"
       d="m 40.999902,41.999899 c 0,0 5.553319,3.237135 8.499999,4.5 3.5,1.5 9.5,2.499999 9.5,2.499999"
       id="path1608"
       sodipodi:nodetypes="csc" />
    <path
       style="fill:none;stroke:#000000;stroke-width:0.1;stroke-linecap:butt;stroke-linejoin:miter;stroke-miterlimit:4;stroke-dasharray:none;stroke-opacity:1"
       d="m 60.999901,49.9999 c 0,0 5.55332,3.237135 8.5,4.5 3.5,1.5 9.5,2.499999 9.5,2.499999"
       id="path1608-4"
       sodipodi:nodetypes="csc" />
    <path
       style="fill:none;stroke:#000000;stroke-width:0.1;stroke-linecap:butt;stroke-linejoin:miter;stroke-miterlimit:4;stroke-dasharray:none;stroke-opacity:1"
       d="m 3.4999017,83.499895 c 0,0 9.7433593,-5.08144 14.0000003,-8.5 4.135918,-3.3216 11,-11.499996 11,-11.499996 l -15,-5 c 0,0 9.612307,-4.895641 14,-8 3.955013,-2.798231 11,-9.5 11,-9.5 l -7.5,-2.5 c 0,0 8.063396,-6.609731 11.5,-10.5 3.245279,-3.673684 8.499999,-12 8.499999,-12 0,0 5.69597,8.28463 8.998,12.002 3.36633,3.789759 11.002,10.498 11.002,10.498 l -7.5,2.5 c 0,0 7.04499,6.701769 11,9.5 4.38769,3.104359 14,8 14,8 l -15,5 c 0,0 6.86408,8.178396 11,11.499996 4.25664,3.41856 13.999999,8.5 13.999999,8.5 H 55.999901 V 98.49989 h -10 V 83.499895 Z"
       id="path1662"
       sodipodi:nodetypes="csccsccscsccsccscccccc" />
    <text
       xml:space="preserve"
       style="font-style:normal;font-variant:normal;font-weight:normal;font-stretch:normal;font-size:11.2889px;line-height:1.25;font-family:'Vladimir Script';-inkscape-font-specification:'Vladimir Script, Normal';font-variant-ligatures:normal;font-variant-caps:normal;font-variant-numeric:normal;font-variant-east-asian:normal;fill:#000000;fill-opacity:1;stroke:none;stroke-width:0.264583;stroke-opacity:1;"
       x="8.9613171"
       y="93.705894"
       id="text1666"><tspan
         sodipodi:role="line"
         id="tspan1664"
         x="8.9613171"
         y="93.705894"
         style="font-style:normal;font-variant:normal;font-weight:normal;font-stretch:normal;font-size:11.2889px;font-family:'Vladimir Script';-inkscape-font-specification:'Vladimir Script, Normal';font-variant-ligatures:normal;font-variant-caps:normal;font-variant-numeric:normal;font-variant-east-asian:normal;fill:#000000;fill-opacity:1;stroke:none;stroke-width:0.264583;stroke-opacity:1;">Season's</tspan></text>
    <text
       xml:space="preserve"
       style="font-style:normal;font-variant:normal;font-weight:normal;font-stretch:normal;font-size:11.2889px;line-height:1.25;font-family:'Vladimir Script';-inkscape-font-specification:'Vladimir Script, Normal';font-variant-ligatures:normal;font-variant-caps:normal;font-variant-numeric:normal;font-variant-east-asian:normal;fill:#000000;fill-opacity:1;stroke:none;stroke-width:0.264583;"
       x="59.269989"
       y="93.821648"
       id="text1666-1"><tspan
         sodipodi:role="line"
         id="tspan1664-6"
         x="59.269989"
         y="93.821648"
         style="font-style:normal;font-variant:normal;font-weight:normal;font-stretch:normal;font-size:11.2889px;font-family:'Vladimir Script';-inkscape-font-specification:'Vladimir Script, Normal';font-variant-ligatures:normal;font-variant-caps:normal;font-variant-numeric:normal;font-variant-east-asian:normal;fill:#000000;fill-opacity:1;stroke-width:0.264583;">Greetings</tspan></text>
    <circle
       style="fill:#000000;fill-opacity:1;fill-rule:evenodd;stroke:none;stroke-width:0.1;stroke-miterlimit:4;stroke-dasharray:none;stroke-opacity:1"
       id="path1692"
       cx="34.749901"
       cy="64.749893"
       r="1.25" />
    <circle
       style="fill:#000000;fill-opacity:1;fill-rule:evenodd;stroke:none;stroke-width:0.1;stroke-miterlimit:4;stroke-dasharray:none;stroke-opacity:1"
       id="path1692-3"
       cx="72.249908"
       cy="72.249893"
       r="1.25" />
    <circle
       style="fill:#000000;fill-opacity:1;fill-rule:evenodd;stroke:none;stroke-width:0.1;stroke-miterlimit:4;stroke-dasharray:none;stroke-opacity:1"
       id="path1692-7"
       cx="49.749901"
       cy="52.249901"
       r="1.25" />
    <circle
       style="fill:#000000;fill-opacity:1;fill-rule:evenodd;stroke:none;stroke-width:0.1;stroke-miterlimit:4;stroke-dasharray:0.1, 0.80000000000000004;stroke-dashoffset:0;stroke-opacity:1"
       id="path1692-7-3"
       cx="44.749901"
       cy="34.749901"
       r="1.25" />
    <circle
       style="fill:#000000;fill-opacity:1;fill-rule:evenodd;stroke:none;stroke-width:0.1;stroke-miterlimit:4;stroke-dasharray:none;stroke-opacity:1"
       id="path1692-3-5"
       cx="52.249901"
       cy="77.249893"
       r="1.25" />
    <path
       id="path1846"
       style="fill:none;fill-opacity:1;stroke:#000000;stroke-width:0.411382;stroke-linecap:round;stroke-linejoin:round;stroke-miterlimit:4;stroke-dasharray:none;stroke-dashoffset:0;stroke-opacity:1"
       inkscape:transform-center-x="-3.9664446"
       inkscape:transform-center-y="-0.48091065"
       d="m 22.498869,26.474287 -3.528555,-1.234626 2.411408,-2.753385 m 1.548562,1.740884 -6.929955,1.771885 m 3.51234,-5.380528 -2.753385,2.411406 -1.234635,-3.528557 m 2.247135,-0.431412 -1.771882,6.929945 m -2.985233,-5.855811 0.775178,3.646032 -3.646028,-0.775173 m 0.698558,-2.172303 5.158072,5.158075 m -6.497565,-0.475284 3.528563,1.234629 -2.411408,2.753376 m -1.548562,-1.740874 6.929947,-1.771884 m -3.512332,5.380524 2.753379,-2.411412 1.234626,3.528562 m -2.24712,0.431411 1.771867,-6.929943 m 2.985242,5.855808 -0.775178,-3.646028 3.646035,0.775172 m -0.698565,2.172297 -5.158066,-5.158071" />
    <path
       id="path1862"
       style="fill:none;fill-opacity:1;stroke:#000000;stroke-width:0.411382;stroke-linecap:round;stroke-linejoin:round;stroke-miterlimit:4;stroke-dasharray:none;stroke-dashoffset:0;stroke-opacity:1"
       inkscape:transform-center-x="2.9732772"
       inkscape:transform-center-y="2.669008"
       d="m 82.326301,48.796437 3.59858,-1.012546 -0.39604,3.638565 m -2.26704,-0.537818 4.66038,-5.426304 m 0.209,6.422066 0.87232,-3.554583 3.03525,2.182265 m -1.59329,1.642295 -2.52341,-6.692987 m 5.80411,3.08454 -2.72626,-2.542031 3.43127,-1.456292 m 0.67375,2.180125 -7.18379,-1.266699 m 5.5951,-3.337522 -3.59858,1.012549 0.39604,-3.63856 m 2.26703,0.537826 -4.66037,5.426297 m -0.20901,-6.422058 -0.8723,3.554584 -3.03525,-2.182277 m 1.59329,-1.642287 2.52342,6.692979 m -5.80412,-3.084536 2.72626,2.542029 -3.43128,1.456299 m -0.67374,-2.180125 7.18379,1.266702" />
  </g>
</svg>
